<?xml version="1.0" encoding="UTF-8"?>
<svg version="1.1" xmlns="http://www.w3.org/2000/svg" width="294" height="334">
<path d="M0 0 C1.61054911 0.00360037 3.22109915 0.00680428 4.83164978 0.00964355 C9.18917538 0.0189776 13.54664543 0.03530447 17.90414 0.05401397 C20.63064677 0.06568755 23.35715589 0.07634365 26.08366776 0.08675575 C34.62666611 0.11995262 43.16962563 0.15795914 51.71257436 0.20212096 C61.55206677 0.25285068 71.39143712 0.2870966 81.23103845 0.3073017 C88.85346036 0.32401027 96.47572684 0.35591868 104.09804404 0.39914781 C108.64336817 0.42456743 113.1884992 0.44356771 117.73389816 0.44652367 C122.01049718 0.44968939 126.28659368 0.47180092 130.56303596 0.50807953 C132.12621885 0.5181405 133.68946204 0.52154532 135.2526722 0.51754951 C148.25867336 0.49068966 157.29803356 2.4387042 166.90087891 11.57348633 C172.9235558 18.43976513 175.21591214 25.74300923 175.25790405 34.71154785 C175.26447743 35.7085281 175.26447743 35.7085281 175.27118361 36.72564936 C175.28453206 38.951624 175.29074163 41.17755908 175.296875 43.40356445 C175.30477933 45.00042905 175.31304848 46.59729187 175.32165527 48.19415283 C175.34784548 53.43906964 175.36318372 58.68399429 175.37744141 63.92895508 C175.38280304 65.73773707 175.38818055 67.54651901 175.39357376 69.3553009 C175.41520147 76.88379984 175.43393503 84.41229666 175.44519615 91.94081879 C175.46141418 102.71081419 175.49454093 113.48044763 175.551597 124.25030661 C175.59038849 131.83267763 175.60983993 139.41495223 175.61511672 146.99741983 C175.61875867 151.52063601 175.63065551 156.04346587 175.66321945 160.5665741 C175.69346128 164.82831001 175.6995551 169.08942914 175.68783569 173.35124969 C175.68761627 174.90719155 175.69581134 176.46316338 175.71348953 178.01900482 C175.84026205 189.82831661 174.27849255 200.01632637 166.10400391 209.08520508 C165.44400391 209.08520508 164.78400391 209.08520508 164.10400391 209.08520508 C164.10400391 209.74520508 164.10400391 210.40520508 164.10400391 211.08520508 C162.52197266 212.48754883 162.52197266 212.48754883 160.29150391 214.02270508 C159.58380859 214.52672852 158.87611328 215.03075195 158.14697266 215.55004883 C149.94859004 219.68607497 141.57566701 220.51226577 132.52197266 220.45629883 C130.35204905 220.47366235 128.18212721 220.49124689 126.01220703 220.5090332 C122.6372574 220.5191371 119.26241539 220.52269047 115.88745117 220.52099609 C112.59863888 220.52456443 109.31063999 220.55187577 106.02197266 220.58129883 C105.01563278 220.5731163 104.00929291 220.56493378 102.97245789 220.5565033 C94.21780767 220.64946866 90.04181587 224.01994027 83.72900391 229.89770508 C79.90455657 233.42796416 76.05010255 236.90447007 72.11962891 240.31567383 C69.81792626 242.33635464 67.55636012 244.39833126 65.29150391 246.46020508 C61.89316838 249.53267281 58.42809868 252.4696313 54.85400391 255.33520508 C50.35353341 258.9674997 46.12325711 262.81077158 41.91650391 266.77270508 C27.54703612 280.22053294 27.54703612 280.22053294 20.10400391 280.08520508 C16.02539544 278.91001281 13.75517553 277.82469112 10.94384766 274.63208008 C8.44754064 269.81966655 8.4303673 265.74925163 8.35400391 260.39770508 C8.32508057 259.36709961 8.29615723 258.33649414 8.26635742 257.2746582 C7.96137166 244.88240984 8.01023526 232.47997719 8.10400391 220.08520508 C7.30816895 220.10091553 6.51233398 220.11662598 5.69238281 220.1328125 C2.03799734 220.19570933 -1.6162737 220.23436883 -5.27099609 220.27270508 C-6.52267578 220.2978418 -7.77435547 220.32297852 -9.06396484 220.34887695 C-21.56194684 220.44702864 -30.96588582 218.0252996 -40.52099609 209.83520508 C-47.3384577 201.94130217 -51.13298606 194.83219834 -51.16342163 184.16056824 C-51.16795274 183.50010744 -51.17248386 182.83964664 -51.17715228 182.15917188 C-51.18972389 179.96541667 -51.18818066 177.77191204 -51.18652344 175.578125 C-51.19251323 173.99727564 -51.19931981 172.41642919 -51.20687866 170.83558655 C-51.22450003 166.55445868 -51.22923241 162.27341084 -51.23051023 157.9922502 C-51.23193458 155.31381324 -51.23620955 152.63539644 -51.24150467 149.95696449 C-51.25999217 140.60215596 -51.26817689 131.24740432 -51.26660156 121.89257812 C-51.26540051 113.18962898 -51.28649892 104.48692796 -51.31808889 95.78404158 C-51.34428943 88.29759473 -51.35496728 80.81122874 -51.35369074 73.32473642 C-51.35318222 68.85983153 -51.35880451 64.3951473 -51.38004684 59.93028831 C-51.39949309 55.72847489 -51.39951042 51.52709117 -51.38501358 47.32526207 C-51.38293227 45.78945789 -51.38758571 44.25362635 -51.3997345 42.7178688 C-51.49029281 30.4699859 -49.72726597 20.26715616 -40.99365234 11.08520508 C-28.99992261 -0.38155937 -15.69388482 -0.0710507 0 0 Z M-29.33349609 27.08520508 C-31.70640227 31.64118494 -32.02195632 35.16339738 -32.02970886 40.28962708 C-32.03397385 41.56396103 -32.03823883 42.83829498 -32.04263306 44.15124512 C-32.04228355 45.56127933 -32.04182202 46.97131351 -32.04125977 48.38134766 C-32.04425236 49.8680988 -32.04765512 51.35484917 -32.05143738 52.84159851 C-32.06027217 56.87889713 -32.0626153 60.91617456 -32.06325316 64.95348191 C-32.06396405 67.47692666 -32.06609912 70.00036602 -32.06875038 72.52380943 C-32.07800261 81.33049232 -32.08208549 90.13716007 -32.08129883 98.94384766 C-32.08069831 107.14741303 -32.09124537 115.35091258 -32.10704249 123.5544613 C-32.12012845 130.60172993 -32.12548227 137.64897708 -32.12484342 144.69625777 C-32.12458871 148.9033872 -32.12742491 153.11045815 -32.13802147 157.31757545 C-32.14772002 161.2762888 -32.1477696 165.234888 -32.14050484 169.19360542 C-32.13946113 170.64358436 -32.14180919 172.09357047 -32.1478653 173.54353714 C-32.15561827 175.52895427 -32.1497262 177.5144105 -32.14323425 179.49983215 C-32.14377902 180.6090846 -32.14432379 181.71833704 -32.14488506 182.86120319 C-31.67485137 188.94981986 -30.25433102 193.72687015 -25.89599609 198.08520508 C-20.39327702 201.71202201 -15.38239144 201.47683793 -9.02880859 201.37817383 C-7.99408417 201.37392899 -6.95935974 201.36968414 -5.89328003 201.36531067 C-2.60224929 201.34857503 0.68815956 201.31093157 3.97900391 201.27270508 C6.2159742 201.25765166 8.45295414 201.24396441 10.68994141 201.23168945 C16.16150623 201.1986883 21.63271063 201.14853976 27.10400391 201.08520508 C27.09953751 201.7909819 27.09507111 202.49675873 27.09046936 203.22392273 C26.99121394 219.53865359 27.35219408 235.78732762 28.10400391 252.08520508 C32.41699703 249.35215626 36.06510303 246.42075529 39.79150391 242.89770508 C43.58247817 239.35184199 47.42079747 235.95317359 51.47900391 232.71020508 C57.19787795 228.10862191 62.51405047 223.12899427 67.86181641 218.10864258 C71.00360247 215.16310457 74.22695557 212.32438801 77.49072266 209.51489258 C79.05045361 208.13266127 80.52048754 206.69814396 81.97900391 205.21020508 C85.22998641 201.95922257 87.04114841 201.96130351 91.52832031 201.95922852 C92.66355133 201.95542175 93.79878235 201.95161499 94.96841431 201.94769287 C96.2016745 201.94666565 97.43493469 201.94563843 98.70556641 201.94458008 C101.30583555 201.92624719 103.9060962 201.90667645 106.50634766 201.88598633 C110.61431785 201.85568814 114.72198558 201.83287801 118.83007812 201.8347168 C122.78891102 201.83565986 126.74692677 201.79678031 130.70556641 201.75708008 C131.92668121 201.76414978 133.14779602 201.77121948 134.40591431 201.77850342 C140.53662244 201.69130627 145.20530797 201.25651756 150.43441772 197.93658447 C157.15933076 190.47942798 156.6731331 182.48462417 156.60571289 172.9519043 C156.60950058 171.42352807 156.61500432 169.89515529 156.62208557 168.36679077 C156.6359966 164.23461476 156.62490234 160.10285715 156.60837436 155.97070456 C156.59448149 151.63868001 156.60098856 147.3066787 156.60450745 142.97463989 C156.60720565 135.70332121 156.5937656 128.43216798 156.57055664 121.16088867 C156.54392931 112.76062374 156.5422076 104.36063499 156.553945 95.96034229 C156.56473128 87.86797681 156.55853035 79.77571099 156.54438972 71.68335342 C156.5386393 68.24408734 156.53870512 64.80489442 156.54345512 61.36562729 C156.54823446 57.31567492 156.53808384 53.2660243 156.51650047 49.2161293 C156.51094617 47.73187528 156.51045485 46.24759218 156.51545334 44.76333618 C156.52142957 42.7339716 156.50703545 40.70457776 156.49168396 38.67526245 C156.48925406 37.54078611 156.48682417 36.40630978 156.48432064 35.23745537 C155.97137247 30.98589116 154.50071016 27.6164898 151.60400391 24.44067383 C146.73532941 20.64970072 143.69186971 19.95989966 137.60896301 19.93803406 C136.61515634 19.93251903 136.61515634 19.93251903 135.60127276 19.92689258 C133.37667076 19.91586167 131.15211548 19.9120129 128.92749023 19.90820312 C127.33413546 19.90193796 125.74078214 19.89529112 124.14743042 19.88829041 C118.91030901 19.8672518 113.67318732 19.85688741 108.43603516 19.84692383 C106.6324277 19.84287604 104.82882039 19.83875911 103.02521324 19.83457375 C94.55057806 19.8155216 86.07595159 19.80129127 77.60129911 19.79296178 C67.82332935 19.78319236 58.04558614 19.75688071 48.2676962 19.71646088 C40.70748638 19.68628267 33.14734143 19.67149124 25.58707255 19.66818076 C21.07297413 19.66583199 16.55911773 19.65689422 12.045084 19.63171959 C7.79574505 19.60840431 3.54680688 19.60421942 -0.7025795 19.61448097 C-2.25857821 19.61497563 -3.81459687 19.60867597 -5.3705349 19.59492493 C-18.85654247 19.35256426 -18.85654247 19.35256426 -29.33349609 27.08520508 Z " fill="#0F3147" transform="translate(86.89599609375,26.914794921875)"/>
<path d="M0 0 C1.62215675 0.00333092 1.62215675 0.00333092 3.27708435 0.00672913 C4.49827469 0.00680466 5.71946503 0.00688019 6.97766113 0.00695801 C8.32022644 0.0120654 9.66279134 0.01728141 11.00535583 0.02259827 C12.37156116 0.02446252 13.73776716 0.02588639 15.10397339 0.02688599 C18.70596654 0.03071058 22.30791959 0.04054035 25.90989685 0.05158997 C29.58298693 0.06180536 33.25608367 0.06643858 36.92918396 0.07142639 C44.14080796 0.08163248 51.35232173 0.10120413 58.56394958 0.12025452 C58.56394958 10.35025452 58.56394958 20.58025452 58.56394958 31.12025452 C71.43394958 31.12025452 84.30394958 31.12025452 97.56394958 31.12025452 C97.56394958 42.34025452 97.56394958 53.56025452 97.56394958 65.12025452 C104.75917741 65.08066792 104.75917741 65.08066792 111.95433044 65.03016663 C112.8451532 65.02766907 113.73597595 65.02517151 114.65379333 65.02259827 C115.57023621 65.01736145 116.48667908 65.01212463 117.43089294 65.00672913 C119.56394958 65.12025452 119.56394958 65.12025452 120.56394958 66.12025452 C120.65791016 68.0533195 120.68138476 69.9898429 120.67747498 71.92518616 C120.67735413 73.18383484 120.67723328 74.44248352 120.67710876 75.73927307 C120.6720723 77.08631947 120.66690567 78.43336538 120.66160583 79.78041077 C120.66059875 80.99821228 120.65959167 82.21601379 120.65855408 83.47071838 C120.65330253 88.04140661 120.63934143 92.61208146 120.62644958 97.18275452 C120.60582458 107.39212952 120.58519958 117.60150452 120.56394958 128.12025452 C99.44394958 128.12025452 78.32394958 128.12025452 56.56394958 128.12025452 C56.56394958 111.12025452 56.56394958 111.12025452 57.56394958 107.12025452 C44.69394958 107.12025452 31.82394958 107.12025452 18.56394958 107.12025452 C18.56394958 93.92025452 18.56394958 80.72025452 18.56394958 67.12025452 C11.30394958 66.79025452 4.04394958 66.46025452 -3.43605042 66.12025452 C-3.45860422 57.66257721 -3.47696711 49.20492311 -3.48786259 40.74722385 C-3.49309073 36.82036793 -3.50018711 32.89353357 -3.51148987 28.96669006 C-3.52232122 25.18011194 -3.52832777 21.39355462 -3.53092766 17.6069622 C-3.53278146 16.15921132 -3.53640122 14.71146163 -3.54178047 13.26371956 C-3.54899409 11.24268317 -3.5494585 9.22162604 -3.54957581 7.20057678 C-3.55179642 6.04807938 -3.55401703 4.89558197 -3.55630493 3.7081604 C-3.39881467 0.3189323 -3.37630173 0.16666959 0 0 Z " fill="#FCAA38" transform="translate(90.43605041503906,72.87974548339844)"/>
<path d="M0 0 C19.8 0 39.6 0 60 0 C60 20.46 60 40.92 60 62 C40.2 62 20.4 62 0 62 C0 41.54 0 21.08 0 0 Z " fill="#032941" transform="translate(149,139)"/>
<path d="M0 0 C0.8454689 -0.00281982 1.69093781 -0.00563965 2.56202698 -0.00854492 C3.94070953 -0.00550858 3.94070953 -0.00550858 5.34724426 -0.00241089 C6.32157913 -0.00416321 7.295914 -0.00591553 8.29977417 -0.00772095 C11.5197986 -0.01212192 14.73976811 -0.0092083 17.95979309 -0.00582886 C20.19370535 -0.00650224 22.42761753 -0.00747255 24.66152954 -0.00872803 C29.34128009 -0.01020248 34.02101155 -0.0080579 38.70075989 -0.00338745 C44.71362158 0.00231958 50.72643874 -0.00097692 56.73929882 -0.00695992 C61.35020283 -0.01056388 65.96109618 -0.00942787 70.5720005 -0.00683212 C72.79008807 -0.00616291 75.00817659 -0.00699108 77.22626305 -0.00931168 C80.31739769 -0.01183657 83.40845888 -0.00800037 86.49958801 -0.00241089 C87.42478241 -0.00443512 88.34997681 -0.00645935 89.3032074 -0.00854492 C95.61505995 0.01271925 95.61505995 0.01271925 96.72932434 1.12698364 C96.82328491 3.06004863 96.84675952 4.99657202 96.84284973 6.93191528 C96.84273643 8.79373192 96.84273643 8.79373192 96.84262085 10.69316101 C96.83751345 12.05782104 96.83229744 13.42248066 96.82698059 14.78713989 C96.82511634 16.17576548 96.82369247 17.56439171 96.82269287 18.95301819 C96.81886821 22.61419479 96.80903837 26.27533194 96.79798889 29.93649292 C96.78777366 33.66990627 96.78319501 37.40332598 96.77815247 41.13674927 C96.76741605 48.46684541 96.75034026 55.79690901 96.72932434 63.12698364 C95.24432434 62.63198364 95.24432434 62.63198364 93.72932434 62.12698364 C93.72932434 42.32698364 93.72932434 22.52698364 93.72932434 2.12698364 C64.52432434 1.63198364 64.52432434 1.63198364 34.72932434 1.12698364 C34.72932434 21.58698364 34.72932434 42.04698364 34.72932434 63.12698364 C34.06932434 63.12698364 33.40932434 63.12698364 32.72932434 63.12698364 C32.70230404 60.37691756 32.68247551 57.62711818 32.66682434 54.87698364 C32.65844543 54.09967896 32.65006653 53.32237427 32.64143372 52.52151489 C32.63821106 51.76741333 32.6349884 51.01331177 32.63166809 50.23635864 C32.62643127 49.54509888 32.62119446 48.85383911 32.61579895 48.14163208 C32.72932434 46.12698364 32.72932434 46.12698364 33.72932434 42.12698364 C20.85932434 42.12698364 7.98932434 42.12698364 -5.27067566 42.12698364 C-5.27067566 28.92698364 -5.27067566 15.72698364 -5.27067566 2.12698364 C-6.26067566 1.79698364 -7.25067566 1.46698364 -8.27067566 1.12698364 C-5.4433004 0.32422439 -2.9356047 0.00151109 0 0 Z " fill="#65BBC3" transform="translate(114.27067565917969,137.87301635742188)"/>
<path d="M0 0 C13.2 0 26.4 0 40 0 C40 10.89 40 21.78 40 33 C26.8 33 13.6 33 0 33 C0 22.11 0 11.22 0 0 Z " fill="#EC6475" transform="translate(148,105)"/>
<path d="M0 0 C13.0211064 -0.023121 26.04220795 -0.04091384 39.06333065 -0.05181217 C45.10887817 -0.05704153 51.1544117 -0.06414014 57.19995117 -0.07543945 C63.02894288 -0.08626645 68.85792109 -0.09227643 74.68692207 -0.09487724 C76.9161761 -0.09673183 79.14542935 -0.10035308 81.37467766 -0.10573006 C84.48539734 -0.11293799 87.59606049 -0.11399105 90.70678711 -0.11352539 C91.63826569 -0.11712067 92.56974426 -0.12071594 93.52944946 -0.12442017 C99.88594784 -0.11405216 99.88594784 -0.11405216 101 1 C101.09396057 2.93306498 101.11743517 4.86958838 101.11352539 6.80493164 C101.11341209 8.66674828 101.11341209 8.66674828 101.11329651 10.56617737 C101.10818911 11.9308374 101.1029731 13.29549702 101.09765625 14.66015625 C101.095792 16.04878183 101.09436813 17.43740807 101.09336853 18.82603455 C101.08954387 22.48721115 101.07971403 26.1483483 101.06866455 29.80950928 C101.05844932 33.54292263 101.05387067 37.27634234 101.04882812 41.00976562 C101.03809171 48.33986177 101.02101591 55.66992536 101 63 C99.515 62.505 99.515 62.505 98 62 C98 42.2 98 22.4 98 2 C68.795 1.505 68.795 1.505 39 1 C39 21.46 39 41.92 39 63 C38.34 63 37.68 63 37 63 C36.91923248 49.63858361 37.17403214 36.29452537 37.5 22.9375 C37.5483599 20.89518661 37.59653807 18.85286891 37.64453125 16.81054688 C37.76059972 11.87363457 37.880371 6.93683236 38 2 C25.46 2 12.92 2 0 2 C0 1.34 0 0.68 0 0 Z " fill="#959992" transform="translate(110,138)"/>
<path d="M0 0 C0.66 0 1.32 0 2 0 C2 20.46 2 40.92 2 62 C1.01 61.67 0.02 61.34 -1 61 C-1.02312792 53.19424805 -1.04091738 45.38850405 -1.05181217 37.58272648 C-1.05704002 33.9585404 -1.06413587 30.3343777 -1.07543945 26.71020508 C-1.08627184 23.21540025 -1.09227758 19.72061796 -1.09487724 16.22579765 C-1.09763551 14.23760611 -1.10544688 12.24942369 -1.11329651 10.26124573 C-1.11337204 9.06007614 -1.11344757 7.85890656 -1.11352539 6.62133789 C-1.115746 5.55766495 -1.11796661 4.493992 -1.12025452 3.39808655 C-1 1 -1 1 0 0 Z " fill="#535E68" transform="translate(209,139)"/>
<path d="M0 0 C0.99 0.33 1.98 0.66 3 1 C-1.7652031 5.9240432 -6.88657333 10.44259642 -12 15 C-12.33 13.68 -12.66 12.36 -13 11 C-12.01 11 -11.02 11 -10 11 C-10 10.01 -10 9.02 -10 8 C-9.34 8 -8.68 8 -8 8 C-8 7.01 -8 6.02 -8 5 C-6.20963542 3.99088542 -4.41927083 2.98177083 -2.62890625 1.97265625 C-1.02121854 1.1027487 -1.02121854 1.1027487 0 0 Z " fill="#404F5B" transform="translate(162,260)"/>
<path d="M0 0 C2.31 0 4.62 0 7 0 C3.83047153 3.26008643 0.60062011 6.22237877 -3 9 C-3.66 8.34 -4.32 7.68 -5 7 C-4.54625 6.5875 -4.0925 6.175 -3.625 5.75 C-1.94049626 3.93591905 -1.00734029 2.24714373 0 0 Z " fill="#465664" transform="translate(132,284)"/>
<path d="M0 0 C11.88 0 23.76 0 36 0 C36 0.33 36 0.66 36 1 C24.12 1 12.24 1 0 1 C0 0.67 0 0.34 0 0 Z " fill="#FCF4D4" transform="translate(180,226)"/>
<path d="M0 0 C0.99 0 1.98 0 3 0 C2.62669176 2.72574271 2.20805399 3.80822085 0.15234375 5.703125 C-0.94400391 6.46882813 -0.94400391 6.46882813 -2.0625 7.25 C-2.79597656 7.77078125 -3.52945313 8.2915625 -4.28515625 8.828125 C-4.85105469 9.21484375 -5.41695313 9.6015625 -6 10 C-6 8.35 -6 6.7 -6 5 C-4.35 4.67 -2.7 4.34 -1 4 C-0.67 2.68 -0.34 1.36 0 0 Z " fill="#485862" transform="translate(123,293)"/>
<path d="M0 0 C2.14553974 2.14553974 2.72963853 3.02602384 3 6 C1.5625 7.75 1.5625 7.75 0 9 C-0.99 8.67 -1.98 8.34 -3 8 C-3.33 7.01 -3.66 6.02 -4 5 C-2.0625 2.3125 -2.0625 2.3125 0 0 Z " fill="#264055" transform="translate(140,275)"/>
<path d="M0 0 C0.66 0 1.32 0 2 0 C0.72278474 4.99275057 -1.17330957 7.57611908 -5 11 C-5.36666667 5.5 -5.36666667 5.5 -3.625 3.125 C-2 2 -2 2 0 2 C0 1.34 0 0.68 0 0 Z " fill="#314552" transform="translate(257,225)"/>
<path d="M0 0 C2.475 0.495 2.475 0.495 5 1 C5 1.66 5 2.32 5 3 C5.99 3.33 6.98 3.66 8 4 C8.33 5.65 8.66 7.3 9 9 C8.01 9.33 7.02 9.66 6 10 C5.566875 9.0925 5.13375 8.185 4.6875 7.25 C3.29482729 4.56781551 1.88887243 2.33860395 0 0 Z " fill="#4F5C68" transform="translate(236,49)"/>
<path d="M0 0 C-1.41225926 0.67595315 -2.83002905 1.34040059 -4.25 2 C-5.43335938 2.556875 -5.43335938 2.556875 -6.640625 3.125 C-9 4 -9 4 -13 4 C-13 3.34 -13 2.68 -13 2 C-11.5882217 1.46605821 -10.17029756 0.94834896 -8.75 0.4375 C-7.96109375 0.14746094 -7.1721875 -0.14257812 -6.359375 -0.44140625 C-3.80896548 -1.04522837 -2.44677771 -0.8473932 0 0 Z " fill="#43505B" transform="translate(245,242)"/>
<path d="M0 0 C0.66 1.32 1.32 2.64 2 4 C0 6 0 6 -1.9453125 6.1953125 C-3.96354167 6.13020833 -5.98177083 6.06510417 -8 6 C-5.33333333 4 -2.66666667 2 0 0 Z " fill="#445660" transform="translate(239,222)"/>
<path d="M0 0 C5.44208234 0.34013015 8.93668198 3.70296528 13 7 C11 8 11 8 8.9375 7.75 C8.298125 7.5025 7.65875 7.255 7 7 C6.67 6.01 6.34 5.02 6 4 C2.99992729 2.29144978 2.99992729 2.29144978 0 1 C0 0.67 0 0.34 0 0 Z " fill="#868F93" transform="translate(239,30)"/>
<path d="M0 0 C0 0.66 0 1.32 0 2 C-3.46153846 5 -3.46153846 5 -6 5 C-6.33 3.68 -6.66 2.36 -7 1 C-4.53721199 -0.231394 -2.7204945 -0.07159196 0 0 Z " fill="#304351" transform="translate(251,236)"/>
<path d="M0 0 C2.97 0.495 2.97 0.495 6 1 C1.25 4.875 1.25 4.875 -1 6 C-0.67 4.02 -0.34 2.04 0 0 Z " fill="#455861" transform="translate(176,246)"/>
<path d="M0 0 C0.66 1.32 1.32 2.64 2 4 C1.01 4.495 1.01 4.495 0 5 C-0.72159424 6.64363134 -1.39351421 8.31050386 -2 10 C-2.6875 8.375 -2.6875 8.375 -3 6 C-1.5625 2.75 -1.5625 2.75 0 0 Z " fill="#79838B" transform="translate(40,46)"/>
<path d="M0 0 C0.33 0.99 0.66 1.98 1 3 C-1.97 5.475 -1.97 5.475 -5 8 C-5.66 7.67 -6.32 7.34 -7 7 C-4.69 4.69 -2.38 2.38 0 0 Z " fill="#57636E" transform="translate(167,233)"/>
<path d="M0 0 C4.29 0 8.58 0 13 0 C13 0.33 13 0.66 13 1 C8.71 1 4.42 1 0 1 C0 0.67 0 0.34 0 0 Z " fill="#FFFFCF" transform="translate(97,226)"/>
<path d="M0 0 C3.3 0 6.6 0 10 0 C10 0.33 10 0.66 10 1 C6.7 1 3.4 1 0 1 C0 0.67 0 0.34 0 0 Z " fill="#FFFFED" transform="translate(218,226)"/>
<path d="M0 0 C4 1 4 1 4 1 Z " fill="#FFFFFF" transform="translate(221,48)"/>
<path d="M0 0 C3 1 3 1 3 1 Z " fill="#FFFFFF" transform="translate(88,226)"/>
<path d="M0 0 C3 1 3 1 3 1 Z " fill="#F0F0F0" transform="translate(69,226)"/>
<path d="M0 0 C2 1 2 1 2 1 Z " fill="#FFE5E5" transform="translate(182,248)"/>
<path d="M0 0 C2 1 2 1 2 1 Z " fill="#FFFFFF" transform="translate(232,247)"/>
<path d="M0 0 C2 1 2 1 2 1 Z " fill="#FFFFFF" transform="translate(65,225)"/>
<path d="" fill="#FFFFDF" transform="translate(0,0)"/>
<path d="" fill="#FFFFFF" transform="translate(0,0)"/>
<path d="" fill="#FFFFFF" transform="translate(0,0)"/>
<path d="" fill="#FFFFFF" transform="translate(0,0)"/>
<path d="M0 0 C2 1 2 1 2 1 Z " fill="#FFFFFF" transform="translate(216,48)"/>
<path d="" fill="#FFFFFF" transform="translate(0,0)"/>
<path d="" fill="#FFFFFF" transform="translate(0,0)"/>
<path d="" fill="#FFFFFF" transform="translate(0,0)"/>
<path d="" fill="#FFFFFF" transform="translate(0,0)"/>
<path d="" fill="#FFFFFF" transform="translate(0,0)"/>
<path d="" fill="#FFFFFF" transform="translate(0,0)"/>
<path d="" fill="#FFFFCC" transform="translate(0,0)"/>
<path d="" fill="#FFFFFF" transform="translate(0,0)"/>
<path d="" fill="#FFFFFF" transform="translate(0,0)"/>
<path d="" fill="#FFFFFF" transform="translate(0,0)"/>
<path d="" fill="#FFFFFF" transform="translate(0,0)"/>
<path d="" fill="#FFFFFF" transform="translate(0,0)"/>
<path d="" fill="#FFFFFF" transform="translate(0,0)"/>
</svg>
